<?xml version="1.0" standalone="no"?>
<!DOCTYPE svg PUBLIC "-//W3C//DTD SVG 20010904//EN"
 "http://www.w3.org/TR/2001/REC-SVG-20010904/DTD/svg10.dtd">
<svg version="1.0" xmlns="http://www.w3.org/2000/svg"
 width="640.000000pt" height="640.000000pt" viewBox="0 0 640.000000 640.000000"
 preserveAspectRatio="xMidYMid meet">
<metadata>
Created by potrace 1.14, written by Peter Selinger 2001-2017
</metadata>
<g transform="translate(0.000000,640.000000) scale(0.100000,-0.100000)"
fill="#000000" stroke="none">
<path d="M4535 5755 c-5 -2 -43 -11 -84 -20 -212 -49 -404 -195 -511 -389 -32
-58 -70 -154 -75 -191 -2 -11 -4 -20 -5 -20 -13 0 -27 -236 -15 -255 2 -3 0
-12 -4 -18 -4 -7 -5 -33 -1 -58 5 -32 3 -49 -6 -57 -19 -17 -54 -45 -169 -134
-119 -94 -250 -196 -287 -226 -14 -12 -41 -33 -59 -47 -37 -28 -146 -114 -170
-134 -9 -7 -47 -37 -85 -66 -38 -30 -100 -79 -139 -109 -38 -31 -74 -59 -80
-63 -5 -4 -22 -18 -37 -30 -15 -13 -46 -36 -68 -52 -22 -17 -40 -33 -40 -38 0
-4 -7 -8 -15 -8 -8 0 -15 -3 -15 -7 0 -5 -17 -19 -37 -33 -20 -14 -41 -29 -47
-35 -6 -5 -34 -28 -61 -50 -28 -22 -51 -43 -53 -47 -2 -5 -10 -8 -17 -8 -7 0
-15 -3 -17 -8 -1 -4 -34 -32 -73 -62 -81 -64 -85 -67 -145 -114 -25 -20 -49
-40 -55 -44 -5 -4 -53 -41 -105 -82 -119 -93 -99 -78 -205 -161 -49 -39 -105
-83 -124 -97 -19 -15 -51 -40 -72 -57 -20 -16 -48 -38 -61 -48 -13 -10 -38
-30 -57 -45 -111 -88 -151 -120 -180 -142 -19 -14 -42 -33 -52 -42 -11 -10
-21 -18 -23 -18 -2 0 -15 -9 -28 -20 -20 -17 -122 -97 -229 -181 -80 -63 -345
-271 -359 -282 -8 -7 -35 -28 -60 -47 -25 -19 -47 -37 -50 -40 -3 -3 -34 -28
-70 -55 -78 -60 -95 -73 -128 -102 -14 -13 -28 -23 -31 -23 -3 0 -17 -10 -31
-23 -14 -12 -56 -47 -95 -76 -101 -79 -144 -121 -168 -166 -28 -54 -32 -69
-32 -150 0 -164 126 -289 290 -289 80 0 110 5 127 22 7 7 17 12 22 12 15 0
460 223 464 233 2 4 8 7 14 7 15 0 462 223 466 233 2 4 9 7 15 7 7 0 70 30
142 65 71 36 131 61 133 55 2 -5 7 -8 11 -5 8 4 49 5 223 5 47 0 90 0 95 1 4
1 13 1 18 0 13 -3 289 -3 301 0 5 1 14 1 19 0 6 -2 64 -2 129 -2 128 1 156 -3
156 -23 0 -7 9 -38 21 -67 27 -69 39 -103 79 -214 18 -49 36 -99 41 -110 5
-11 40 -105 78 -210 38 -104 75 -203 82 -220 7 -16 13 -37 15 -45 2 -8 7 -23
13 -35 5 -11 34 -85 63 -165 46 -126 57 -147 87 -167 43 -29 77 -29 154 1 34
13 95 36 135 51 134 50 145 84 82 256 -17 46 -33 91 -37 99 -3 8 -7 20 -8 25
-3 12 -62 170 -75 200 -9 22 -69 184 -74 200 -2 6 -6 17 -9 25 -3 8 -24 67
-47 130 -23 63 -45 124 -50 135 -5 11 -18 46 -29 77 l-20 57 32 3 c18 2 53 1
78 -3 26 -3 55 -2 65 1 11 4 30 4 44 0 14 -3 39 -3 55 0 17 3 41 3 55 0 14 -3
39 -3 55 0 42 8 63 1 70 -24 4 -11 15 -40 26 -63 10 -24 19 -47 19 -53 0 -5 6
-24 14 -42 8 -18 29 -73 46 -123 18 -49 36 -99 41 -110 5 -11 38 -101 74 -200
80 -219 76 -209 77 -215 0 -3 5 -14 11 -25 6 -11 12 -27 13 -35 2 -8 7 -23 13
-35 5 -11 33 -84 61 -161 76 -210 98 -222 287 -154 165 59 189 74 202 124 6
22 9 51 7 64 -4 20 -40 118 -71 197 -4 11 -9 25 -10 30 -3 12 -62 170 -75 200
-9 22 -69 184 -74 200 -2 6 -6 19 -10 30 -5 11 -21 54 -36 95 -15 41 -45 120
-65 175 -20 55 -41 111 -47 125 -28 68 -28 80 0 86 15 4 32 9 37 13 6 3 17 6
25 8 8 1 23 6 35 12 11 5 56 25 100 42 334 135 667 424 873 757 22 36 115 212
117 222 1 3 9 23 19 45 91 205 146 490 145 755 0 104 0 99 3 163 2 31 0 57 -3
57 -3 0 -3 20 1 45 4 25 4 48 0 50 -4 3 -4 22 0 44 4 22 4 45 -1 52 -4 7 -6
16 -3 21 4 6 5 45 3 108 -1 20 0 179 0 209 1 30 2 31 37 37 16 2 40 7 54 9 23
5 53 9 125 20 17 2 42 7 58 9 48 10 141 25 177 30 19 3 45 7 56 10 12 2 37 7
55 10 192 30 393 66 397 71 10 10 -19 137 -42 186 -53 108 -126 187 -250 268
-69 45 -202 108 -247 116 -11 2 -24 7 -29 10 -6 4 -23 9 -38 11 -15 3 -43 9
-62 14 -78 20 -167 27 -388 31 -64 1 -68 3 -113 55 -33 40 -124 114 -184 151
-111 70 -263 111 -410 111 -49 0 -94 -2 -100 -3z m209 -578 c86 -46 131 -120
131 -217 0 -140 -95 -235 -234 -235 -76 1 -126 21 -173 71 -47 50 -65 97 -64
168 3 112 64 191 176 229 29 10 135 -1 164 -16z"/>
</g>
</svg>
